<svg xmlns="http://www.w3.org/2000/svg" viewBox="0 0 69 69" fill="currentColor"><g fill="currentColor" transform="translate(0 3)"><path d="M29.621.901a2.853 2.853 0 0 0 .132 4.043l1.17 1.093H25.88C12.951 6.023 2 15.527.241 28.286-1.514 41.045 6.463 53.134 18.919 56.59l-.066-.037c.4.12.822.15 1.235.091l.05.006v-.012a2.864 2.864 0 0 0 2.419-2.825 2.864 2.864 0 0 0-2.42-2.825v-.006C10.56 48.148 4.525 38.741 5.966 28.894 7.41 19.048 15.892 11.75 25.882 11.76h5.544l-1.752 1.665a2.854 2.854 0 0 0-.09 4.047 2.882 2.882 0 0 0 4.063.09l6.727-6.409a2.856 2.856 0 0 0-.02-4.154L33.68.773a2.88 2.88 0 0 0-4.059.131V.901Zm7.994 56.633 1.615 1.536a2.854 2.854 0 0 1 .806 2.747c-.243.993-1 1.781-1.985 2.068a2.881 2.881 0 0 1-2.791-.678L28.533 56.8a2.856 2.856 0 0 1 .02-4.154l6.673-6.229a2.88 2.88 0 0 1 4.06.133 2.853 2.853 0 0 1-.134 4.044l-1.307 1.219h5.271c9.985.008 18.464-7.282 19.912-17.121 1.449-9.84-4.571-19.247-14.138-22.094a2.87 2.87 0 0 1-2.229-1.805 2.852 2.852 0 0 1 .455-2.826 2.879 2.879 0 0 1 2.685-1.02l.135-.005c12.504 3.39 20.556 15.478 18.832 28.27-1.724 12.793-12.692 22.337-25.652 22.323h-5.5Z"/><rect  transform="rotate(45 34.975 31.56)" x="-4.025" y="28.061" width="78" height="7" rx="3.5"  fill="currentColor"/></g></svg>